{
  "accessors": [
    {
      "bufferView": 2,
      "componentType": 5126,
      "count": 1118,
      "max": [
        0.17575199902057648,
        -0.370510995388031,
        4.053886890411377
      ],
      "min": [
        -0.19835999608039856,
        -0.4078960120677948,
        3.9773709774017334
      ],
      "type": "VEC3"
    },
    {
      "bufferView": 2,
      "byteOffset": 13416,
      "componentType": 5126,
      "count": 1118,
      "max": [
        0.9997400641441345,
        0.9997513890266418,
        1.0
      ],
      "min": [
        -0.9997400641441345,
        -0.9997513890266418,
        -1.0
      ],
      "type": "VEC3"
    },
    {
      "bufferView": 1,
      "componentType": 5126,
      "count": 1118,
      "max": [
        1.0,
        1.0
      ],
      "min": [
        0.0,
        0.0
      ],
      "type": "VEC2"
    },
    {
      "bufferView": 0,
      "componentType": 5125,
      "count": 5760,
      "type": "SCALAR"
    },
    {
      "bufferView": 2,
      "byteOffset": 26832,
      "componentType": 5126,
      "count": 3920,
      "max": [
        0.16571399569511414,
        -0.289126992225647,
        3.7255918979644775
      ],
      "min": [
        -0.17270499467849731,
        -0.3907740116119385,
        3.6580350399017334
      ],
      "type": "VEC3"
    },
    {
      "bufferView": 2,
      "byteOffset": 73872,
      "componentType": 5126,
      "count": 3920,
      "max": [
        0.9993711709976196,
        0.9999657869338989,
        0.999971866607666
      ],
      "min": [
        -0.9989084601402283,
        -0.999858021736145,
        -0.9997876286506653
      ],
      "type": "VEC3"
    },
    {
      "bufferView": 1,
      "byteOffset": 8944,
      "componentType": 5126,
      "count": 3920,
      "max": [
        1.0000510215759277,
        1.0
      ],
      "min": [
        0.0,
        0.0
      ],
      "type": "VEC2"
    },
    {
      "bufferView": 0,
      "byteOffset": 23040,
      "componentType": 5125,
      "count": 18732,
      "type": "SCALAR"
    },
    {
      "bufferView": 2,
      "byteOffset": 120912,
      "componentType": 5126,
      "count": 1118,
      "max": [
        0.20701800286769867,
        -0.28290098905563354,
        4.081718921661377
      ],
      "min": [
        -0.23169200122356415,
        -0.40313199162483215,
        3.9405879974365234
      ],
      "type": "VEC3"
    },
    {
      "bufferView": 2,
      "byteOffset": 134328,
      "componentType": 5126,
      "count": 1118,
      "max": [
        0.9997468590736389,
        0.9997535347938538,
        1.0
      ],
      "min": [
        -0.9997468590736389,
        -0.9997535347938538,
        -1.0
      ],
      "type": "VEC3"
    },
    {
      "bufferView": 1,
      "byteOffset": 40304,
      "componentType": 5126,
      "count": 1118,
      "max": [
        1.0,
        1.0
      ],
      "min": [
        0.0,
        0.0
      ],
      "type": "VEC2"
    },
    {
      "bufferView": 0,
      "byteOffset": 97968,
      "componentType": 5125,
      "count": 5760,
      "type": "SCALAR"
    },
    {
      "bufferView": 2,
      "byteOffset": 147744,
      "componentType": 5126,
      "count": 390,
      "max": [
        0.40027400851249695,
        0.20287999510765076,
        3.5155739784240723
      ],
      "min": [
        -0.6402480006217957,
        -0.14225199818611145,
        1.9383080005645752
      ],
      "type": "VEC3"
    },
    {
      "bufferView": 2,
      "byteOffset": 152424,
      "componentType": 5126,
      "count": 390,
      "max": [
        0.9861100316047668,
        0.9826367497444153,
        0.5371736884117126
      ],
      "min": [
        -0.9874821305274963,
        -0.9829381108283997,
        -0.5007768273353577
      ],
      "type": "VEC3"
    },
    {
      "bufferView": 1,
      "byteOffset": 49248,
      "componentType": 5126,
      "count": 390,
      "max": [
        1.0,
        1.0
      ],
      "min": [
        0.0,
        0.009999999776482582
      ],
      "type": "VEC2"
    },
    {
      "bufferView": 0,
      "byteOffset": 121008,
      "componentType": 5125,
      "count": 1116,
      "type": "SCALAR"
    },
    {
      "bufferView": 2,
      "byteOffset": 157104,
      "componentType": 5126,
      "count": 130,
      "max": [
        -0.12841199338436127,
        0.1067190021276474,
        1.9311950206756592
      ],
      "min": [
        -0.3270519971847534,
        -0.053589001297950745,
        0.9137579798698425
      ],
      "type": "VEC3"
    },
    {
      "bufferView": 2,
      "byteOffset": 158664,
      "componentType": 5126,
      "count": 130,
      "max": [
        0.9603937864303589,
        0.9819324016571045,
        0.3276859521865845
      ],
      "min": [
        -0.9603937864303589,
        -0.9819324016571045,
        -0.3276859521865845
      ],
      "type": "VEC3"
    },
    {
      "bufferView": 1,
      "byteOffset": 52368,
      "componentType": 5126,
      "count": 130,
      "max": [
        1.0,
        1.0
      ],
      "min": [
        0.0,
        0.009999999776482582
      ],
      "type": "VEC2"
    },
    {
      "bufferView": 0,
      "byteOffset": 125472,
      "componentType": 5125,
      "count": 372,
      "type": "SCALAR"
    },
    {
      "bufferView": 2,
      "byteOffset": 160224,
      "componentType": 5126,
      "count": 130,
      "max": [
        0.35205599665641785,
        0.11460299789905548,
        1.9322750568389893
      ],
      "min": [
        0.13746899366378784,
        -0.04596799984574318,
        0.9126790165901184
      ],
      "type": "VEC3"
    },
    {
      "bufferView": 2,
      "byteOffset": 161784,
      "componentType": 5126,
      "count": 130,
      "max": [
        0.9641502499580383,
        0.9819768071174622,
        0.34338805079460144
      ],
      "min": [
        -0.9641502499580383,
        -0.9819768071174622,
        -0.34338805079460144
      ],
      "type": "VEC3"
    },
    {
      "bufferView": 1,
      "byteOffset": 53408,
      "componentType": 5126,
      "count": 130,
      "max": [
        1.0,
        1.0
      ],
      "min": [
        0.0,
        0.009999999776482582
      ],
      "type": "VEC2"
    },
    {
      "bufferView": 0,
      "byteOffset": 126960,
      "componentType": 5125,
      "count": 372,
      "type": "SCALAR"
    },
    {
      "bufferView": 2,
      "byteOffset": 163344,
      "componentType": 5126,
      "count": 260,
      "max": [
        0.5951570272445679,
        0.12639400362968445,
        3.5124049186706543
      ],
      "min": [
        0.30467501282691956,
        -0.048909999430179596,
        2.138166904449463
      ],
      "type": "VEC3"
    },
    {
      "bufferView": 2,
      "byteOffset": 166464,
      "componentType": 5126,
      "count": 260,
      "max": [
        0.9866222143173218,
        0.9827806949615479,
        0.5371109843254089
      ],
      "min": [
        -0.9852377772331238,
        -0.9831066727638245,
        -0.5006998181343079
      ],
      "type": "VEC3"
    },
    {
      "bufferView": 1,
      "byteOffset": 54448,
      "componentType": 5126,
      "count": 260,
      "max": [
        1.0,
        1.0
      ],
      "min": [
        0.0,
        0.009999999776482582
      ],
      "type": "VEC2"
    },
    {
      "bufferView": 0,
      "byteOffset": 128448,
      "componentType": 5125,
      "count": 744,
      "type": "SCALAR"
    },
    {
      "bufferView": 2,
      "byteOffset": 169584,
      "componentType": 5126,
      "count": 130,
      "max": [
        -0.15447500348091125,
        0.10049399733543396,
        0.9241380095481873
      ],
      "min": [
        -0.3282040059566498,
        -0.04781100153923035,
        0.05976499989628792
      ],
      "type": "VEC3"
    },
    {
      "bufferView": 2,
      "byteOffset": 171144,
      "componentType": 5126,
      "count": 130,
      "max": [
        0.9541218280792236,
        0.9816065430641174,
        0.30359187722206116
      ],
      "min": [
        -0.9541218280792236,
        -0.9816065430641174,
        -0.30359187722206116
      ],
      "type": "VEC3"
    },
    {
      "bufferView": 1,
      "byteOffset": 56528,
      "componentType": 5126,
      "count": 130,
      "max": [
        1.0,
        1.0
      ],
      "min": [
        0.0,
        0.009999999776482582
      ],
      "type": "VEC2"
    },
    {
      "bufferView": 0,
      "byteOffset": 131424,
      "componentType": 5125,
      "count": 372,
      "type": "SCALAR"
    },
    {
      "bufferView": 2,
      "byteOffset": 172704,
      "componentType": 5126,
      "count": 130,
      "max": [
        0.3651910126209259,
        0.10902199894189835,
        0.924767017364502
      ],
      "min": [
        0.1849289983510971,
        -0.03939099982380867,
        0.05913599953055382
      ],
      "type": "VEC3"
    },
    {
      "bufferView": 2,
      "byteOffset": 174264,
      "componentType": 5126,
      "count": 130,
      "max": [
        0.9562625288963318,
        0.9816422462463379,
        0.3106940984725952
      ],
      "min": [
        -0.9562625288963318,
        -0.9816422462463379,
        -0.3106940984725952
      ],
      "type": "VEC3"
    },
    {
      "bufferView": 1,
      "byteOffset": 57568,
      "componentType": 5126,
      "count": 130,
      "max": [
        1.0,
        1.0
      ],
      "min": [
        0.0,
        0.009999999776482582
      ],
      "type": "VEC2"
    },
    {
      "bufferView": 0,
      "byteOffset": 132912,
      "componentType": 5125,
      "count": 372,
      "type": "SCALAR"
    },
    {
      "bufferView": 2,
      "byteOffset": 175824,
      "componentType": 5126,
      "count": 658,
      "max": [
        0.3794589936733246,
        0.12650400400161743,
        0.09505700320005417
      ],
      "min": [
        0.17853499948978424,
        -0.19794200360774994,
        0.0032399999909102917
      ],
      "type": "VEC3"
    },
    {
      "bufferView": 2,
      "byteOffset": 183720,
      "componentType": 5126,
      "count": 658,
      "max": [
        0.9998655319213867,
        0.9998655319213867,
        1.0
      ],
      "min": [
        -0.9998655319213867,
        -0.9998655319213867,
        -1.0
      ],
      "type": "VEC3"
    },
    {
      "bufferView": 1,
      "byteOffset": 58608,
      "componentType": 5126,
      "count": 658,
      "max": [
        1.0,
        0.5625
      ],
      "min": [
        0.0,
        0.0
      ],
      "type": "VEC2"
    },
    {
      "bufferView": 0,
      "byteOffset": 134400,
      "componentType": 5125,
      "count": 3456,
      "type": "SCALAR"
    },
    {
      "bufferView": 2,
      "byteOffset": 191616,
      "componentType": 5126,
      "count": 6783,
      "max": [
        0.6240389943122864,
        0.45965099334716797,
        4.3492631912231445
      ],
      "min": [
        -0.6625980138778687,
        -0.4599649906158447,
        1.7221709489822388
      ],
      "type": "VEC3"
    },
    {
      "bufferView": 2,
      "byteOffset": 273012,
      "componentType": 5126,
      "count": 6783,
      "max": [
        0.9998655319213867,
        0.9998655319213867,
        1.0
      ],
      "min": [
        -0.9998655319213867,
        -0.9998655319213867,
        -1.0
      ],
      "type": "VEC3"
    },
    {
      "bufferView": 1,
      "byteOffset": 63872,
      "componentType": 5126,
      "count": 6783,
      "max": [
        1.0,
        1.0
      ],
      "min": [
        0.0,
        0.0
      ],
      "type": "VEC2"
    },
    {
      "bufferView": 0,
      "byteOffset": 148224,
      "componentType": 5125,
      "count": 27216,
      "type": "SCALAR"
    },
    {
      "bufferView": 2,
      "byteOffset": 354408,
      "componentType": 5126,
      "count": 1994,
      "max": [
        0.20928800106048584,
        0.1180180013179779,
        4.274209022521973
      ],
      "min": [
        -0.3322640061378479,
        -0.3287700116634369,
        0.0032399999909102917
      ],
      "type": "VEC3"
    },
    {
      "bufferView": 2,
      "byteOffset": 378336,
      "componentType": 5126,
      "count": 1994,
      "max": [
        0.9998655319213867,
        0.9998655319213867,
        1.0
      ],
      "min": [
        -0.9998655319213867,
        -0.9998655319213867,
        -1.0
      ],
      "type": "VEC3"
    },
    {
      "bufferView": 1,
      "byteOffset": 118136,
      "componentType": 5126,
      "count": 1994,
      "max": [
        1.0,
        1.0
      ],
      "min": [
        0.0,
        0.0
      ],
      "type": "VEC2"
    },
    {
      "bufferView": 0,
      "byteOffset": 257088,
      "componentType": 5125,
      "count": 5724,
      "type": "SCALAR"
    }
  ],
  "asset": {
    "extras": {
      "author": "gadenogaming (https://sketchfab.com/gadenogaming)",
      "license": "CC-BY-4.0 (http://creativecommons.org/licenses/by/4.0/)",
      "source": "https://sketchfab.com/3d-models/baldi-from-baldis-basics-458cf8a3372942439e9873920805392a",
      "title": "Baldi from baldi's basics"
    },
    "generator": "Sketchfab-16.25.0",
    "version": "2.0"
  },
  "bufferViews": [
    {
      "buffer": 0,
      "byteLength": 279984,
      "name": "floatBufferViews",
      "target": 34963
    },
    {
      "buffer": 0,
      "byteLength": 134088,
      "byteOffset": 279984,
      "byteStride": 8,
      "name": "floatBufferViews",
      "target": 34962
    },
    {
      "buffer": 0,
      "byteLength": 402264,
      "byteOffset": 414072,
      "byteStride": 12,
      "name": "floatBufferViews",
      "target": 34962
    }
  ],
  "buffers": [
    {
      "byteLength": 816336,
      "uri": "f.bin"
    }
  ],
  "materials": [
    {
      "doubleSided": true,
      "name": "Material.001",
      "pbrMetallicRoughness": {
        "baseColorFactor": [
          0.768151,
          0.564712,
          0.246201,
          1.0
        ],
        "metallicFactor": 0.0,
        "roughnessFactor": 0.5
      }
    },
    {
      "doubleSided": true,
      "name": "Material.004",
      "pbrMetallicRoughness": {
        "baseColorFactor": [
          0.783538,
          0.0343398,
          0.0221739,
          1.0
        ],
        "metallicFactor": 0.0,
        "roughnessFactor": 0.5
      }
    },
    {
      "doubleSided": true,
      "name": "Material.005",
      "pbrMetallicRoughness": {
        "baseColorFactor": [
          0.0,
          0.0,
          0.0,
          1.0
        ],
        "metallicFactor": 0.0,
        "roughnessFactor": 0.5
      }
    },
    {
      "doubleSided": true,
      "name": "Material.007",
      "pbrMetallicRoughness": {
        "baseColorFactor": [
          0.0144438,
          0.672443,
          0.0137021,
          1.0
        ],
        "metallicFactor": 0.0,
        "roughnessFactor": 0.5
      }
    },
    {
      "doubleSided": true,
      "name": "Material.008",
      "pbrMetallicRoughness": {
        "metallicFactor": 0.0,
        "roughnessFactor": 0.6
      }
    },
    {
      "doubleSided": true,
      "name": "Material.010",
      "pbrMetallicRoughness": {
        "baseColorFactor": [
          0.0144438,
          0.672443,
          0.0137021,
          1.0
        ],
        "metallicFactor": 0.0,
        "roughnessFactor": 0.5
      }
    },
    {
      "doubleSided": true,
      "name": "Material.011",
      "pbrMetallicRoughness": {
        "baseColorFactor": [
          0.0307135,
          0.0231534,
          0.64448,
          1.0
        ],
        "metallicFactor": 0.0,
        "roughnessFactor": 0.5
      }
    },
    {
      "doubleSided": true,
      "name": "Material.012",
      "pbrMetallicRoughness": {
        "baseColorFactor": [
          0.0307135,
          0.0231534,
          0.64448,
          1.0
        ],
        "metallicFactor": 0.0,
        "roughnessFactor": 0.5
      }
    },
    {
      "doubleSided": true,
      "name": "Material.013",
      "pbrMetallicRoughness": {
        "baseColorFactor": [
          0.0307135,
          0.0231534,
          0.64448,
          1.0
        ],
        "metallicFactor": 0.0,
        "roughnessFactor": 0.5
      }
    },
    {
      "doubleSided": true,
      "name": "Material.015",
      "pbrMetallicRoughness": {
        "baseColorFactor": [
          0.0307135,
          0.0231534,
          0.64448,
          1.0
        ],
        "metallicFactor": 0.0,
        "roughnessFactor": 0.5
      }
    },
    {
      "doubleSided": true,
      "name": "Material.016",
      "pbrMetallicRoughness": {
        "baseColorFactor": [
          0.473532,
          0.144129,
          0.00182116,
          1.0
        ],
        "metallicFactor": 0.0,
        "roughnessFactor": 0.5
      }
    },
    {
      "doubleSided": true,
      "name": "Material.017",
      "pbrMetallicRoughness": {
        "baseColorFactor": [
          0.473532,
          0.144129,
          0.00182116,
          1.0
        ],
        "metallicFactor": 0.0,
        "roughnessFactor": 0.5
      }
    }
  ],
  "meshes": [
    {
      "name": "Object_0",
      "primitives": [
        {
          "attributes": {
            "NORMAL": 1,
            "POSITION": 0,
            "TEXCOORD_0": 2
          },
          "indices": 3,
          "material": 2,
          "mode": 4
        }
      ]
    },
    {
      "name": "Object_1",
      "primitives": [
        {
          "attributes": {
            "NORMAL": 5,
            "POSITION": 4,
            "TEXCOORD_0": 6
          },
          "indices": 7,
          "material": 1,
          "mode": 4
        }
      ]
    },
    {
      "name": "Object_2",
      "primitives": [
        {
          "attributes": {
            "NORMAL": 9,
            "POSITION": 8,
            "TEXCOORD_0": 10
          },
          "indices": 11,
          "material": 4,
          "mode": 4
        }
      ]
    },
    {
      "name": "Object_3",
      "primitives": [
        {
          "attributes": {
            "NORMAL": 13,
            "POSITION": 12,
            "TEXCOORD_0": 14
          },
          "indices": 15,
          "material": 3,
          "mode": 4
        }
      ]
    },
    {
      "name": "Object_4",
      "primitives": [
        {
          "attributes": {
            "NORMAL": 17,
            "POSITION": 16,
            "TEXCOORD_0": 18
          },
          "indices": 19,
          "material": 6,
          "mode": 4
        }
      ]
    },
    {
      "name": "Object_5",
      "primitives": [
        {
          "attributes": {
            "NORMAL": 21,
            "POSITION": 20,
            "TEXCOORD_0": 22
          },
          "indices": 23,
          "material": 8,
          "mode": 4
        }
      ]
    },
    {
      "name": "Object_6",
      "primitives": [
        {
          "attributes": {
            "NORMAL": 25,
            "POSITION": 24,
            "TEXCOORD_0": 26
          },
          "indices": 27,
          "material": 5,
          "mode": 4
        }
      ]
    },
    {
      "name": "Object_7",
      "primitives": [
        {
          "attributes": {
            "NORMAL": 29,
            "POSITION": 28,
            "TEXCOORD_0": 30
          },
          "indices": 31,
          "material": 7,
          "mode": 4
        }
      ]
    },
    {
      "name": "Object_8",
      "primitives": [
        {
          "attributes": {
            "NORMAL": 33,
            "POSITION": 32,
            "TEXCOORD_0": 34
          },
          "indices": 35,
          "material": 9,
          "mode": 4
        }
      ]
    },
    {
      "name": "Object_9",
      "primitives": [
        {
          "attributes": {
            "NORMAL": 37,
            "POSITION": 36,
            "TEXCOORD_0": 38
          },
          "indices": 39,
          "material": 11,
          "mode": 4
        }
      ]
    },
    {
      "name": "Object_10",
      "primitives": [
        {
          "attributes": {
            "NORMAL": 41,
            "POSITION": 40,
            "TEXCOORD_0": 42
          },
          "indices": 43,
          "material": 0,
          "mode": 4
        }
      ]
    },
    {
      "name": "Object_11",
      "primitives": [
        {
          "attributes": {
            "NORMAL": 45,
            "POSITION": 44,
            "TEXCOORD_0": 46
          },
          "indices": 47,
          "material": 10,
          "mode": 4
        }
      ]
    }
  ],
  "nodes": [
    {
      "children": [
        1
      ],
      "matrix": [
        1.0,
        0.0,
        0.0,
        0.0,
        0.0,
        2.220446049250313e-16,
        -1.0,
        0.0,
        0.0,
        1.0,
        2.220446049250313e-16,
        0.0,
        0.0,
        0.0,
        0.0,
        1.0
      ],
      "name": "Sketchfab_model"
    },
    {
      "children": [
        2,
        3,
        4,
        5,
        6,
        7,
        8,
        9,
        10,
        11,
        12,
        13
      ],
      "name": "baldi basics.obj.cleaner.materialmerger.gles"
    },
    {
      "mesh": 0,
      "name": "Object_2"
    },
    {
      "mesh": 1,
      "name": "Object_3"
    },
    {
      "mesh": 2,
      "name": "Object_4"
    },
    {
      "mesh": 3,
      "name": "Object_5"
    },
    {
      "mesh": 4,
      "name": "Object_6"
    },
    {
      "mesh": 5,
      "name": "Object_7"
    },
    {
      "mesh": 6,
      "name": "Object_8"
    },
    {
      "mesh": 7,
      "name": "Object_9"
    },
    {
      "mesh": 8,
      "name": "Object_10"
    },
    {
      "mesh": 9,
      "name": "Object_11"
    },
    {
      "mesh": 10,
      "name": "Object_12"
    },
    {
      "mesh": 11,
      "name": "Object_13"
    }
  ],
  "scene": 0,
  "scenes": [
    {
      "name": "Sketchfab_Scene",
      "nodes": [
        0
      ]
    }
  ]
}
